<svg version="1.1" id="Layer_2" xmlns="http://www.w3.org/2000/svg" xmlns:xlink="http://www.w3.org/1999/xlink" x="0px" y="0px"
	 viewBox="-91 98 598.3 598.3" style="enable-background:new -91 98 598.3 598.3;" xml:space="preserve">
<style type="text/css">
	.st0{fill:#FF7F2A;}
	.st1{fill:none;stroke:#FFFFFF;stroke-width:2;stroke-miterlimit:10;}
	.st2{fill:#FFFFFF;}
</style>
  <g>
	  <g>
      <path class="st0" d="M377.1,360l-17.7-1.4c-19.8-1.6-29.4-24.9-16.6-40l11.8-13.9c8.2-9.6,7.6-23.8-1.3-32.7L334,252.7
        c-8.9-8.9-23.1-9.4-32.7-1.3l-13.5,11.5c-15.1,12.9-38.4,3.2-40-16.6l-1.4-18.2c-1-12.5-11.4-22.2-24-22.2H195
        c-12.6,0-23,9.7-24,22.2l-1.4,17.7c-1.6,19.8-24.9,29.4-40,16.6l-13.9-11.8c-9.6-8.2-23.8-7.6-32.7,1.3l-19.5,19.5
        c-8.9,8.9-9.4,23.1-1.3,32.7l11.5,13.5c12.9,15.1,3.2,38.4-16.6,40l-18.2,1.4c-12.5,1-22.2,11.4-22.2,24v27.5
        c0,12.6,9.7,23,22.2,24l17.7,1.4c19.8,1.6,29.4,24.9,16.6,40l-11.8,13.9c-8.2,9.6-7.6,23.8,1.3,32.7l19.5,19.5
        c8.9,8.9,23.1,9.4,32.7,1.3l13.5-11.5c15.1-12.9,38.4-3.2,40,16.6l1.4,18.2c1,12.5,11.4,22.2,24,22.2h27.5c12.6,0,23-9.7,24-22.2
        l1.4-17.7c1.6-19.8,24.9-29.4,40-16.6l13.9,11.8c9.6,8.2,23.8,7.6,32.7-1.3l19.5-19.5c8.9-8.9,9.4-23.1,1.3-32.7l-11.5-13.5
        c-12.9-15.1-3.2-38.4,16.6-40l18.2-1.4c12.5-1,22.2-11.4,22.2-24V384C399.3,371.5,389.6,361,377.1,360z"/>
      <path class="st1" d="M193.7,573.3c-4.7,0-8.7-3.7-9-8.4l-1.4-18.2c-1.6-20.6-18.5-36.2-39.3-36.2c-9.4,0-18.1,3.3-25.4,9.4
        l-13.5,11.5c-2.1,1.8-4.4,2.2-5.9,2.2c-2.4,0-4.7-0.9-6.4-2.7l-19.5-19.5c-3.3-3.3-3.5-8.7-0.5-12.3l11.8-13.9
        c9.6-11.3,12.1-26.8,6.4-40.5c-5.7-13.7-18.4-23-33.2-24.1l-17.6-1.4c-4.7-0.4-8.4-4.3-8.4-9v-27.5c0-4.7,3.7-8.7,8.4-9l18.2-1.4
        c14.8-1.2,27.5-10.4,33.2-24.1c5.7-13.7,3.2-29.2-6.4-40.5l-11.5-13.5c-3.1-3.6-2.8-9,0.5-12.3l19.5-19.5c1.7-1.7,4-2.7,6.4-2.7
        c1.5,0,3.8,0.4,5.9,2.2l13.9,11.8c7.2,6.2,16,9.4,25.4,9.4c20.8,0,37.6-15.6,39.3-36.2l1.4-17.7c0.4-4.7,4.3-8.4,9-8.4h27.5
        c4.7,0,8.7,3.7,9,8.4l1.4,18.2c1.6,20.6,18.5,36.2,39.3,36.2c0,0,0,0,0,0c9.4,0,18.1-3.3,25.4-9.4l13.5-11.5
        c2.1-1.8,4.4-2.2,5.9-2.2c2.4,0,4.7,0.9,6.4,2.7l19.5,19.5c3.3,3.3,3.5,8.7,0.5,12.3l-11.8,13.9c-9.6,11.3-12.1,26.8-6.4,40.5
        c5.7,13.7,18.4,23,33.2,24.1l17.7,1.4c4.7,0.4,8.4,4.3,8.4,9v27.5c0,4.7-3.7,8.7-8.4,9l-18.2,1.4c-14.8,1.2-27.5,10.4-33.2,24.1
        c-5.7,13.7-3.2,29.2,6.4,40.5l11.5,13.5c3.1,3.6,2.8,9-0.5,12.3l-19.5,19.5c-1.7,1.7-4,2.7-6.4,2.7l0,0c-1.5,0-3.8-0.4-5.9-2.2
        l-13.9-11.8c-7.2-6.2-16-9.4-25.4-9.4c-20.8,0-37.6,15.6-39.3,36.2l-1.4,17.7c-0.4,4.7-4.3,8.4-9,8.4H193.7z"/>
    </g>
    <path id="path140" class="st2" d="M228.9,482.4c-16.4-3.7-35.1-15.5-52.9-33.5
      c-35.9-36-53.2-73.1-48.1-103.4c1.4-8.6,2.8-12.9,6.8-20.5c2.4-4.7,4.3-7.1,10.2-12.9c11-10.8,15.3-13.1,21-11.4
      c4,1.2,8.1,5.2,13.4,13.2c7.4,11.2,11.7,20.3,12.2,25.9c0.8,8.6-1.4,12.3-12.8,21.5c-3.4,2.7-6.8,6-7.7,7.3
      c-6.6,9.8,2.9,29.9,24.2,51.3c9.6,9.6,15.1,13.8,20.3,15.7c7,2.5,11.7,0.6,19.7-7.8c3.1-3.3,6.9-6.8,8.3-7.7
      c4-2.5,8.6-3.2,13.5-1.9c6.2,1.6,8.8,3.5,22.1,15.8c8.8,8.2,11.6,12.4,11.6,17.6c0,4.9-1.8,7.6-11.3,16.3
      c-8.6,7.9-14.4,11.4-22.5,13.7C251.1,483.2,234.6,483.7,228.9,482.4z"/>
  </g>
</svg>
