<?xml version="1.0" encoding="UTF-8" standalone="no"?>
<svg
   xmlns:dc="http://purl.org/dc/elements/1.1/"
   xmlns:cc="http://creativecommons.org/ns#"
   xmlns:rdf="http://www.w3.org/1999/02/22-rdf-syntax-ns#"
   xmlns:svg="http://www.w3.org/2000/svg"
   xmlns="http://www.w3.org/2000/svg"
   xmlns:sodipodi="http://sodipodi.sourceforge.net/DTD/sodipodi-0.dtd"
   xmlns:inkscape="http://www.inkscape.org/namespaces/inkscape"
   inkscape:version="1.0rc1 (09960d6, 2020-04-09)"
   sodipodi:docname="gearPhone.svg"
   width="40"
   height="40"
   xml:space="preserve"
   style="enable-background:new -91 98 598.3 598.3;"
   viewBox="-91 98 598.3 598.3"
   y="0px"
   x="0px"
   id="Layer_2"
   version="1.1"><metadata
   id="metadata86"><rdf:RDF><cc:Work
       rdf:about=""><dc:format>image/svg+xml</dc:format><dc:type
         rdf:resource="http://purl.org/dc/dcmitype/StillImage" /></cc:Work></rdf:RDF></metadata><defs
   id="defs84" /><sodipodi:namedview
   inkscape:current-layer="Layer_2"
   inkscape:window-maximized="0"
   inkscape:window-y="23"
   inkscape:window-x="0"
   inkscape:cy="20.870748"
   inkscape:cx="21.251701"
   inkscape:zoom="18.375"
   showgrid="false"
   id="namedview82"
   inkscape:window-height="973"
   inkscape:window-width="1439"
   inkscape:pageshadow="2"
   inkscape:pageopacity="0"
   guidetolerance="10"
   gridtolerance="10"
   objecttolerance="10"
   borderopacity="1"
   bordercolor="#666666"
   pagecolor="#ffffff" />
<style
   id="style70"
   type="text/css">
	.st0{fill:#FF7F2A;}
	.st1{fill:none;stroke:#FFFFFF;stroke-width:2;stroke-miterlimit:10;}
	.st2{fill:#FFFFFF;}
</style>
  <g
   transform="matrix(1.562549,0,0,1.562549,-117.09457,-223.72884)"
   id="g79">
	  <g
   id="g76">
      <path
   inkscape:connector-curvature="0"
   id="path72"
   d="m 377.1,360 -17.7,-1.4 C 339.6,357 330,333.7 342.8,318.6 l 11.8,-13.9 c 8.2,-9.6 7.6,-23.8 -1.3,-32.7 L 334,252.7 c -8.9,-8.9 -23.1,-9.4 -32.7,-1.3 l -13.5,11.5 c -15.1,12.9 -38.4,3.2 -40,-16.6 l -1.4,-18.2 c -1,-12.5 -11.4,-22.2 -24,-22.2 H 195 c -12.6,0 -23,9.7 -24,22.2 l -1.4,17.7 c -1.6,19.8 -24.9,29.4 -40,16.6 L 115.7,250.6 C 106.1,242.4 91.9,243 83,251.9 l -19.5,19.5 c -8.9,8.9 -9.4,23.1 -1.3,32.7 l 11.5,13.5 c 12.9,15.1 3.2,38.4 -16.6,40 L 38.9,359 c -12.5,1 -22.2,11.4 -22.2,24 v 27.5 c 0,12.6 9.7,23 22.2,24 l 17.7,1.4 c 19.8,1.6 29.4,24.9 16.6,40 l -11.8,13.9 c -8.2,9.6 -7.6,23.8 1.3,32.7 L 82.2,542 c 8.9,8.9 23.1,9.4 32.7,1.3 l 13.5,-11.5 c 15.1,-12.9 38.4,-3.2 40,16.6 l 1.4,18.2 c 1,12.5 11.4,22.2 24,22.2 h 27.5 c 12.6,0 23,-9.7 24,-22.2 l 1.4,-17.7 c 1.6,-19.8 24.9,-29.4 40,-16.6 l 13.9,11.8 c 9.6,8.2 23.8,7.6 32.7,-1.3 l 19.5,-19.5 c 8.9,-8.9 9.4,-23.1 1.3,-32.7 l -11.5,-13.5 c -12.9,-15.1 -3.2,-38.4 16.6,-40 l 18.2,-1.4 c 12.5,-1 22.2,-11.4 22.2,-24 V 384 c -0.3,-12.5 -10,-23 -22.5,-24 z"
   class="st0" />
      <path
   inkscape:connector-curvature="0"
   id="path74"
   d="m 193.7,573.3 c -4.7,0 -8.7,-3.7 -9,-8.4 l -1.4,-18.2 c -1.6,-20.6 -18.5,-36.2 -39.3,-36.2 -9.4,0 -18.1,3.3 -25.4,9.4 l -13.5,11.5 c -2.1,1.8 -4.4,2.2 -5.9,2.2 -2.4,0 -4.7,-0.9 -6.4,-2.7 L 73.3,511.4 C 70,508.1 69.8,502.7 72.8,499.1 L 84.6,485.2 C 94.2,473.9 96.7,458.4 91,444.7 85.3,431 72.6,421.7 57.8,420.6 l -17.6,-1.4 c -4.7,-0.4 -8.4,-4.3 -8.4,-9 v -27.5 c 0,-4.7 3.7,-8.7 8.4,-9 l 18.2,-1.4 c 14.8,-1.2 27.5,-10.4 33.2,-24.1 5.7,-13.7 3.2,-29.2 -6.4,-40.5 L 73.7,294.2 c -3.1,-3.6 -2.8,-9 0.5,-12.3 l 19.5,-19.5 c 1.7,-1.7 4,-2.7 6.4,-2.7 1.5,0 3.8,0.4 5.9,2.2 l 13.9,11.8 c 7.2,6.2 16,9.4 25.4,9.4 20.8,0 37.6,-15.6 39.3,-36.2 l 1.4,-17.7 c 0.4,-4.7 4.3,-8.4 9,-8.4 h 27.5 c 4.7,0 8.7,3.7 9,8.4 l 1.4,18.2 c 1.6,20.6 18.5,36.2 39.3,36.2 0,0 0,0 0,0 9.4,0 18.1,-3.3 25.4,-9.4 l 13.5,-11.5 c 2.1,-1.8 4.4,-2.2 5.9,-2.2 2.4,0 4.7,0.9 6.4,2.7 l 19.5,19.5 c 3.3,3.3 3.5,8.7 0.5,12.3 l -11.8,13.9 c -9.6,11.3 -12.1,26.8 -6.4,40.5 5.7,13.7 18.4,23 33.2,24.1 l 17.7,1.4 c 4.7,0.4 8.4,4.3 8.4,9 v 27.5 c 0,4.7 -3.7,8.7 -8.4,9 l -18.2,1.4 c -14.8,1.2 -27.5,10.4 -33.2,24.1 -5.7,13.7 -3.2,29.2 6.4,40.5 l 11.5,13.5 c 3.1,3.6 2.8,9 -0.5,12.3 l -19.5,19.5 c -1.7,1.7 -4,2.7 -6.4,2.7 v 0 c -1.5,0 -3.8,-0.4 -5.9,-2.2 l -13.9,-11.8 c -7.2,-6.2 -16,-9.4 -25.4,-9.4 -20.8,0 -37.6,15.6 -39.3,36.2 l -1.4,17.7 c -0.4,4.7 -4.3,8.4 -9,8.4 z"
   class="st1" />
    </g>
    <path
   inkscape:connector-curvature="0"
   d="m 228.9,482.4 c -16.4,-3.7 -35.1,-15.5 -52.9,-33.5 -35.9,-36 -53.2,-73.1 -48.1,-103.4 1.4,-8.6 2.8,-12.9 6.8,-20.5 2.4,-4.7 4.3,-7.1 10.2,-12.9 11,-10.8 15.3,-13.1 21,-11.4 4,1.2 8.1,5.2 13.4,13.2 7.4,11.2 11.7,20.3 12.2,25.9 0.8,8.6 -1.4,12.3 -12.8,21.5 -3.4,2.7 -6.8,6 -7.7,7.3 -6.6,9.8 2.9,29.9 24.2,51.3 9.6,9.6 15.1,13.8 20.3,15.7 7,2.5 11.7,0.6 19.7,-7.8 3.1,-3.3 6.9,-6.8 8.3,-7.7 4,-2.5 8.6,-3.2 13.5,-1.9 6.2,1.6 8.8,3.5 22.1,15.8 8.8,8.2 11.6,12.4 11.6,17.6 0,4.9 -1.8,7.6 -11.3,16.3 -8.6,7.9 -14.4,11.4 -22.5,13.7 -5.8,1.6 -22.3,2.1 -28,0.8 z"
   class="st2"
   id="path140" />
  </g>
</svg>
