<svg width="512" height="512" xmlns="http://www.w3.org/2000/svg">

 <g>
  <g>
  <title>background</title>
  <rect fill="none" id="canvas_background" height="402" width="582" y="-1" x="-1"/>
  <path clip-rule="evenodd" d="M14.371,9.793c1.207-0.228,1.998,1.133,2.6,2.072   c0.586,0.912,1.307,1.982,1.016,3.169c-0.162,0.666-0.764,1.029-1.219,1.422c-0.449,0.388-1.133,0.744-1.299,1.34   c-0.271,0.967,0.322,1.982,0.689,2.56c0.834,1.306,1.842,2.483,3.129,3.534c0.623,0.51,1.488,1.191,2.355,1.016   c1.295-0.262,1.637-1.859,3.047-2.072c1.342-0.203,2.25,0.77,3.008,1.422c0.73,0.631,1.908,1.439,1.828,2.52   c-0.047,0.621-0.545,1.006-0.977,1.381c-0.439,0.383-0.824,0.813-1.258,1.096c-1.051,0.686-2.34,1.022-3.82,0.976   c-1.451-0.045-2.607-0.538-3.656-1.097c-2.051-1.094-3.672-2.633-5.199-4.348c-1.502-1.686-2.889-3.682-3.656-5.889   c-0.957-2.756-0.451-5.587,1.098-7.353c0.262-0.3,0.676-0.613,1.055-0.935C13.49,10.284,13.84,9.893,14.371,9.793z" fill="#959595" fill-rule="evenodd"/>
  </g>
 </g>
 <g>
  <title>Layer 1</title>
  <g>
  <path id="svg_3" d="m425.500001,216l-15.2,0c-12.4,0 -22.8,-10.4 -22.8,-23.2c0,-6.4 2.7,-12.1 7.5,-16.4l9.8,-9.6c9.7,-9.6 9.7,-25.2 0,-34.9l-22.3,-22.1c-4.4,-4.4 -10.9,-7 -17.5,-7c-6.6,0 -13,2.6 -17.5,7l-9.4,9.4c-4.5,5 -10.7,7.7 -17.2,7.7c-12.8,0 -23.7,-10.4 -23.7,-22.7l0,-15.1c0,-13.5 -10.5,-25.1 -24,-25.1l-30.4,0c-13.8,0 -24.8,11.5 -24.8,25.1l0,15.2c0,12.3 -10.6,22.7 -23.4,22.7c-6.4,0 -12.2,-2.7 -16.6,-7.4l-9.7,-9.6c-4.4,-4.5 -10.9,-7 -17.5,-7s-13,2.6 -17.5,7l-22.3,22c-9.6,9.6 -9.6,25.3 0,34.8l9.4,9.4c5,4.5 7.8,10.2 7.8,16.7c0,12.8 -10.4,23.2 -22.8,23.2l-15.2,0c-13.7,-0.1 -25.2,11.1 -25.2,24.7l0,15.2l0,15.2c0,13.5 11.5,24.8 25.2,24.8l15.2,0c12.4,0 22.8,10.4 22.8,23.2c0,6.4 -2.8,12.3 -7.8,16.8l-9.4,9.2c-9.6,9.6 -9.6,25.2 0,34.8l22.3,22.2c4.4,4.5 10.9,7 17.5,7c6.6,0 13,-2.6 17.5,-7l9.7,-9.6c4.2,-4.7 10.1,-7.4 16.5,-7.4c12.8,0 23.4,10.4 23.4,22.7l0,15.2c0,13.5 11,25.1 24.7,25.1l30.4,0c13.6,0 24.9,-11.5 24.9,-25.1l0,-15.2c0,-12.3 10.5,-22.7 23.3,-22.7c6.4,0 12.3,2.8 16.9,7.7l9.4,9.4c4.5,4.4 10.9,7 17.5,7c6.6,0 13,-2.6 17.5,-7l22.3,-22.2c9.6,-9.6 9.6,-25.3 0,-34.9l-9.8,-9.6c-4.8,-4.3 -7.5,-10.4 -7.5,-16.7c0,-12.8 10.4,-23.6 22.8,-23.6l15.2,0c13.6,0 23.3,-10.3 23.3,-23.9l0,-15.4l0,-15.2c0,-13.6 -9.7,-24.8 -23.3,-24.8zm7.5,40l0,15.1c0,4.2 -2.3,7.9 -7.3,7.9l-15.2,0c-10.3,0 -20.1,4.4 -27.5,12c-7.3,7.5 -11.3,17.4 -11.3,27.8c0,10.8 4.4,20.8 12.5,28.2l9.5,9.4c3.3,3.4 3.3,9 0,12.3l-22.3,22.2c-1.6,1.5 -3.9,2.4 -6.3,2.4c-2.4,0 -4.8,-0.9 -6.3,-2.4l-9.1,-9.1c-7.7,-8.1 -17.8,-12.6 -28.5,-12.6c-10.4,0 -20,4 -27.5,11.2c-7.6,7.4 -11.6,17.1 -11.6,27.5l0,15.2c0,4.9 -4.3,9.1 -8.9,9.1l-30.4,0c-4.6,0 -8.7,-4.2 -8.7,-9.1l0,-15.2c0,-10.3 -4.1,-20.1 -11.7,-27.5c-7.5,-7.2 -17.3,-11.2 -27.6,-11.2c-10.6,0 -20.8,4.5 -28.1,12.4l-9.3,9.3c-1.6,1.5 -3.9,2.4 -6.3,2.4c-2.4,0 -4.8,-0.8 -6.1,-2.2l-0.1,-0.1l-0.1,-0.1l-22.3,-22.2c-3.3,-3.3 -3.3,-8.8 0,-12.2l9.1,-9c8.2,-7.6 12.7,-17.7 12.7,-28.5c0,-10.4 -4,-19.9 -11.3,-27.4c-7.4,-7.6 -17.2,-11.5 -27.5,-11.5l-15.3,0c-5,0 -9.2,-4.3 -9.2,-8.8l0,-15.3l0,-15.2c0,-4.5 4.2,-8.8 9.2,-8.8l15.2,0c10.3,0 20.1,-3.9 27.5,-11.5c7.3,-7.5 11.3,-17.2 11.3,-27.5c0,-10.8 -4.5,-20.9 -12.7,-28.4l-9.2,-9.1c-2.2,-2.2 -2.5,-4.7 -2.5,-6.1c0,-1.3 0.3,-3.9 2.5,-6.1l22.2,-22.1c1.6,-1.5 3.9,-2.4 6.3,-2.4c2.4,0 4.8,0.8 6.1,2.2l0.1,0.1l0.1,0.1l9.4,9.4c7.4,8 17.4,12.4 28.1,12.4c10.4,0 20.1,-4 27.6,-11.2c7.6,-7.4 11.8,-17.1 11.8,-27.5l0,-15.2c0,-4.9 4,-9.1 8.5,-9.1l30.5,0c4.5,0 8,4.2 8,9.1l0,15.2c0,10.3 4.4,20.1 12,27.5c7.5,7.2 17.4,11.2 27.8,11.2c10.8,0 21,-4.5 28.6,-12.6l9.1,-9.1c1.6,-1.5 3.9,-2.4 6.3,-2.4c2.4,0 4.8,0.9 6.3,2.3l22.3,22.1c1.6,1.6 2.6,3.8 2.6,6.1c0,2.3 -0.9,4.5 -2.5,6.1l-9.5,9.4c-8,7.4 -12.5,17.4 -12.5,28.2c0,10.4 4,19.9 11.3,27.4c7.4,7.6 17.2,11.5 27.5,11.5l15.2,0c5.4,0 7.4,5 7.5,9l0,15z"/>
  <path d="m85.760017,238.453354c0.853333,0 1.836578,-0.653107 3.41333,0c1.114929,0.461823 2.718735,1.444305 4.26667,2.559998c0.979004,0.705627 2.707703,2.434326 3.41333,3.41333c1.115692,1.547943 1.053551,2.689911 1.706665,4.266663c0.461823,1.114929 1.380119,1.771622 1.706673,2.559998c0.461823,1.114929 1.85437,2.434326 2.559998,3.413345c1.115685,1.547943 2.297638,3.572052 3.41333,5.119995c0.705627,0.979004 1.380104,2.624969 1.706665,3.41333c0.461823,1.114929 1.706673,1.706665 1.706673,2.559998c0,0 0.853333,0.853333 0.853333,0.853333l0,0.853333" id="svg_5" stroke-opacity="null" stroke-width="null" stroke="null" fill="none"/>
  <path stroke="null" d="m234.240173,78.026695c0,0 -0.243608,1.362803 2.64775,5.572794c0.817799,1.190759 3.530333,3.34367 5.2955,4.458227c1.765167,1.114557 4.425794,1.899633 7.060682,2.229113c4.478411,0.559999 8.099458,1.499292 12.356166,3.34368c3.733382,1.617636 7.838679,4.6703 10.590999,6.68734c1.7069,1.250917 3.900038,2.69597 5.295531,4.458237c1.395493,1.762267 1.765167,4.458227 3.530333,8.916454c0.882583,2.229123 1.765167,5.572794 2.64775,7.801907c0.882583,2.229113 1.287514,4.11655 1.765167,5.572794c0.675494,2.059431 0,3.34367 0,4.458227c0,0 0,1.114557 0,1.114557l0,0l-0.882583,-1.114557" id="svg_7" stroke-opacity="null" stroke-width="null" fill="none"/>
  <path id="svg_11" d="m170.240009,198.346686" opacity="0.5" fill-opacity="null" stroke-opacity="null" stroke-width="null" stroke="null" fill="#0f0f00"/>
  </g>
 </g>
</svg>