<svg xmlns="http://www.w3.org/2000/svg" width="40" height="40" viewBox="-91 98 598.3 598.3"><path d="M472.143 338.789l-27.657-2.188c-30.939-2.5-45.94-38.907-25.939-62.502l18.438-21.72c12.813-15 11.876-37.188-2.031-51.095l-30.157-30.157c-13.907-13.906-36.095-14.688-51.096-2.031l-21.094 17.97c-23.594 20.156-60.002 5-62.502-25.939l-2.187-28.438C266.355 113.157 250.104 98 230.416 98h-42.814c-19.688 0-35.938 15.157-37.5 34.689l-2.188 27.657c-2.5 30.938-38.908 45.939-62.502 25.938l-21.72-18.438c-15-12.813-37.188-11.875-51.095 2.031l-30.47 30.47c-13.906 13.907-14.688 36.095-2.031 51.095l17.97 21.095c20.156 23.594 5 60.002-25.939 62.502l-28.438 2.187C-75.843 338.79-91 355.04-91 374.727v42.97c0 19.689 15.157 35.94 34.689 37.502l27.657 2.187c30.938 2.5 45.939 38.908 25.938 62.502l-18.438 21.72c-12.813 15-11.875 37.188 2.031 51.095l30.47 30.47c13.907 13.906 36.095 14.688 51.095 2.031l21.095-17.97c23.594-20.156 60.002-5 62.502 25.939l2.187 28.438c1.563 19.532 17.813 34.689 37.501 34.689h42.97c19.689 0 35.94-15.157 37.502-34.689l2.187-27.657c2.5-30.938 38.908-45.939 62.502-25.938l21.72 18.438c15 12.813 37.188 11.875 51.095-2.031l30.47-30.47c13.906-13.907 14.688-36.095 2.031-51.095l-17.97-21.095c-20.156-23.594-5-60.002 25.939-62.502l28.438-2.187c19.532-1.563 34.689-17.813 34.689-37.501V376.29c-.469-19.532-15.625-35.939-35.157-37.501z" fill="#ff6505"/><path d="M185.571 672.08c-7.344 0-13.594-5.78-14.063-13.125l-2.187-28.438c-2.5-32.189-28.907-56.565-61.409-56.565-14.687 0-28.282 5.157-39.688 14.688l-21.095 17.97a14.151 14.151 0 01-9.219 3.437c-3.75 0-7.344-1.406-10-4.219l-30.47-30.47c-5.156-5.156-5.469-13.593-.781-19.219l18.438-21.72c15-17.656 18.907-41.875 10-63.282-8.906-21.407-28.75-35.939-51.876-37.658l-27.501-2.187c-7.344-.625-13.126-6.72-13.126-14.063v-42.97c0-7.344 5.782-13.595 13.126-14.063l28.438-2.188c23.126-1.875 42.97-16.25 51.877-37.657 8.906-21.407 5-45.627-10-63.284l-17.97-21.094c-4.844-5.625-4.375-14.063.782-19.22l30.47-30.469c2.656-2.656 6.25-4.219 10-4.219 2.343 0 5.937.625 9.219 3.438l21.72 18.438c11.25 9.688 25 14.688 39.688 14.688 32.5 0 58.752-24.376 61.408-56.564l2.188-27.658c.625-7.344 6.719-13.125 14.062-13.125h42.97c7.345 0 13.595 5.781 14.064 13.125l2.187 28.439c2.5 32.188 28.907 56.564 61.408 56.564 0 0 0 0 0 0 14.688 0 28.282-5.156 39.689-14.688l21.094-17.97a14.151 14.151 0 019.22-3.437c3.75 0 7.343 1.406 10 4.22l30.47 30.469c5.156 5.156 5.468 13.594.78 19.22l-18.437 21.719c-15 17.656-18.907 41.876-10 63.283 8.906 21.407 28.75 35.938 51.876 37.657l27.657 2.188c7.344.625 13.126 6.719 13.126 14.063v42.97c0 7.344-5.782 13.594-13.126 14.063l-28.438 2.187c-23.126 1.875-42.97 16.25-51.877 37.658-8.906 21.407-5 45.626 10 63.283l17.97 21.094c4.844 5.626 4.375 14.063-.782 19.22l-30.47 30.47c-2.656 2.656-6.25 4.218-10 4.218h0c-2.343 0-5.937-.625-9.219-3.437l-21.719-18.438c-11.25-9.688-25-14.688-39.689-14.688-32.5 0-58.752 24.375-61.408 56.564l-2.188 27.657c-.625 7.344-6.718 13.126-14.062 13.126z" fill="none" stroke="#fff" stroke-width="3.1251" stroke-miterlimit="10"/><path d="M240.573 530.045c-25.626-5.782-54.846-24.22-82.659-52.346-56.095-56.251-83.128-114.222-75.159-161.567 2.188-13.438 4.376-20.157 10.626-32.032 3.75-7.344 6.719-11.095 15.938-20.157 17.188-16.876 23.907-20.47 32.813-17.813 6.25 1.875 12.657 8.125 20.938 20.625 11.563 17.5 18.282 31.72 19.064 40.47 1.25 13.438-2.188 19.22-20.001 33.595-5.313 4.219-10.625 9.375-12.032 11.407-10.313 15.313 4.532 46.72 37.814 80.158 15 15.001 23.594 21.564 31.72 24.533 10.938 3.906 18.282.937 30.782-12.188 4.844-5.157 10.782-10.626 12.97-12.032 6.25-3.906 13.437-5 21.094-2.969 9.687 2.5 13.75 5.47 34.532 24.688 13.75 12.813 18.125 19.376 18.125 27.501 0 7.657-2.812 11.876-17.656 25.47-13.438 12.344-22.501 17.813-35.158 21.407-9.063 2.5-34.845 3.281-43.751 1.25z" fill="#fff"/></svg>
